<?xml version="1.0" encoding="UTF-8" standalone="no"?>
<svg
   xmlns:dc="http://purl.org/dc/elements/1.1/"
   xmlns:cc="http://creativecommons.org/ns#"
   xmlns:rdf="http://www.w3.org/1999/02/22-rdf-syntax-ns#"
   xmlns:svg="http://www.w3.org/2000/svg"
   xmlns="http://www.w3.org/2000/svg"
   id="svg8"
   version="1.1"
   viewBox="0 0 270.93333 271.21013"
   height="1025.0461"
   width="1024">
  <title
     id="title10">Melbourne train logo</title>
  <defs
     id="defs2" />
  <metadata
     id="metadata5">
    <rdf:RDF>
      <cc:Work
         rdf:about="">
        <dc:format>image/svg+xml</dc:format>
        <dc:type
           rdf:resource="http://purl.org/dc/dcmitype/StillImage" />
        <dc:title>Melbourne train logo</dc:title>
        <dc:date>17 July 2017</dc:date>
        <dc:creator>
          <cc:Agent>
            <dc:title>Pizza1016</dc:title>
          </cc:Agent>
        </dc:creator>
        <dc:publisher>
          <cc:Agent>
            <dc:title>Wikipedia</dc:title>
          </cc:Agent>
        </dc:publisher>
        <dc:source>Public Transport Victoria - https://static.ptv.vic.gov.au/Maps/1482457134/PTV_Train-Network-Map_2017.pdf</dc:source>
        <dc:subject>
          <rdf:Bag>
            <rdf:li>metropolitan melbourne victoria train logo</rdf:li>
          </rdf:Bag>
        </dc:subject>
        <dc:description>Logo representing the metropolitan Melbourne train system in Victoria, Australia.</dc:description>
      </cc:Work>
    </rdf:RDF>
  </metadata>
  <g
     transform="translate(27.193878,-6.6713867)"
     id="layer1">
    <g
       id="g52">
      <ellipse
         style="fill:#ffffff;fill-opacity:1;stroke-width:0.2561256"
         id="path44"
         cx="108.27278"
         cy="142.27643"
         rx="135.46666"
         ry="135.60504" />
      <path
         style="fill:#008cce;fill-opacity:1;stroke-width:0.33266327"
         d="M 99.412761,277.60765 C 71.976773,275.8637 45.075466,265.42859 23.622813,248.20851 c -25.5888138,-20.5402 -42.615975,-48.76354 -48.77775,-80.85146 -1.724263,-8.97924 -2.036818,-12.80397 -2.038904,-24.94974 -0.0026,-11.81765 0.193287,-14.52383 1.681803,-23.30313 C -17.911962,74.279039 12.857258,35.34854 54.805726,17.482785 67.124046,12.23644 79.522922,8.9588415 93.394675,7.2819288 c 6.780995,-0.8197355 22.788285,-0.8124313 29.773365,0.013578 30.9308,3.6576922 58.7928,17.0275552 80.52234,38.6394432 22.76124,22.63804 36.51788,51.702357 39.57474,83.61155 0.63246,6.60205 0.63246,18.78691 0,25.38895 -2.57673,26.89737 -12.79842,51.82633 -29.91737,72.96342 -4.17417,5.15393 -15.15981,16.02111 -20.48674,20.26579 -4.70439,3.74865 -12.83491,9.28816 -17.61621,12.00235 -22.97617,13.04284 -49.40243,19.12064 -75.832039,17.44064 z M 63.920044,232.01499 c 0.888653,-0.40489 1.248219,-1.14956 4.315314,-8.93682 l 1.768808,-4.49096 38.083954,-0.0846 38.08393,-0.0846 2.44741,6.23883 c 1.34608,3.43136 2.72336,6.53822 3.06064,6.90415 0.57534,0.62423 1.1094,0.67153 8.64451,0.76568 8.75091,0.10938 9.59553,-0.0221 10.24729,-1.59569 0.47671,-1.15088 0.59879,-0.91245 -3.64245,-7.11389 -1.83854,-2.68825 -3.3428,-4.95716 -3.3428,-5.04201 0,-0.0849 4.82777,-0.15512 10.72838,-0.15613 6.01424,-0.001 11.2465,-0.14579 11.90748,-0.32942 0.64849,-0.18016 1.68671,-0.85131 2.30714,-1.49144 0.96983,-1.0006 1.14819,-1.44176 1.27138,-3.14493 0.17997,-2.48826 -0.63196,-3.98131 -2.71287,-4.98866 -1.37325,-0.66478 -1.9412,-0.68915 -16.20479,-0.69536 l -14.78165,-0.006 -3.59476,-5.31618 -3.59476,-5.31619 h 10.8467 c 11.36588,0 12.40198,-0.12108 12.93567,-1.51189 0.42313,-1.10264 0.19188,-2.37797 -0.55912,-3.08349 -0.75471,-0.709 -0.95461,-0.72064 -13.86126,-0.80647 l -13.09551,-0.0872 -3.76355,-5.48895 c -2.06996,-3.01891 -3.76641,-5.60121 -3.76989,-5.73843 -0.004,-0.13722 7.14177,-0.25336 15.87833,-0.2581 15.55901,-0.009 15.92941,-0.0239 18.06623,-0.7523 7.566,-2.57934 12.62196,-9.34972 12.62196,-16.90189 0,-2.08956 -6.40959,-90.703834 -6.81928,-94.278411 -0.66965,-5.842688 -4.58178,-11.404217 -9.92157,-14.104604 -4.23291,-2.140629 -1.43576,-2.050407 -60.52717,-1.952292 l -53.634993,0.08906 -1.858655,0.71194 c -1.022245,0.391563 -2.36954,0.971345 -2.993971,1.288397 -4.344672,2.20602 -8.211517,7.178861 -9.276107,11.929293 -0.176161,0.78607 -1.901191,22.925366 -3.8334,49.198417 -3.39113,46.11059 -3.4959,47.85177 -3.017356,50.14687 1.273793,6.10912 5.37993,11.09172 11.16592,13.54934 l 2.162309,0.91845 16.558285,0.16632 16.558283,0.16633 -3.90098,5.73846 -3.900993,5.73844 h -13.07312 c -12.629581,0 -13.095704,0.0226 -13.738466,0.66532 -0.852997,0.85301 -0.867568,2.67035 -0.02968,3.70562 l 0.635609,0.78533 11.173942,0.0959 c 6.145656,0.0527 11.173929,0.16247 11.173929,0.24383 0,0.0814 -1.581973,2.47079 -3.515489,5.30986 l -3.515477,5.16194 -14.697832,0.007 c -13.609677,0.006 -14.798703,0.0531 -16.060237,0.62604 -3.644578,1.65518 -3.916886,6.97049 -0.467242,9.12003 1.128487,0.70318 1.515222,0.72859 12.565532,0.82496 l 11.401213,0.0994 -3.66756,5.38951 c -2.345048,3.44606 -3.667285,5.70079 -3.666795,6.25277 6.66e-4,0.85084 0.688125,1.70217 1.664087,2.06103 1.009231,0.37108 15.916655,0.24507 16.765578,-0.14173 z m 10.655238,-24.8215 c 0.117432,-0.32021 1.058554,-2.71537 2.091259,-5.32262 l 1.877641,-4.74044 h 29.527728 c 16.25782,0 29.60766,0.12934 29.70561,0.28779 0.0978,0.15829 1.06573,2.55347 2.15092,5.32262 l 1.97304,5.0348 h -33.76989 c -32.021422,0 -33.758848,-0.0301 -33.556308,-0.58215 z m 6.205014,-15.63518 c 0.01483,-0.13723 1.025222,-2.71952 2.24548,-5.73843 l 2.21865,-5.48896 22.835444,-0.0855 22.83544,-0.0855 2.19749,5.49234 c 1.20859,3.02076 2.19746,5.64151 2.19746,5.82387 0,0.21762 -9.37429,0.33159 -27.27839,0.33159 -15.003123,0 -27.266323,-0.11228 -27.251574,-0.2495 z M 60.688479,159.74038 c -1.598205,-0.59209 -2.457261,-1.36551 -3.256847,-2.93213 -2.004693,-3.92786 0.92499,-8.66465 5.337935,-8.63047 4.567016,0.0353 7.303752,4.48305 5.302391,8.61731 -1.285951,2.65643 -4.597505,3.97742 -7.383479,2.94529 z m 16.285021,-0.0228 c -2.734864,-0.97496 -4.06242,-3.19134 -3.800848,-6.34559 0.260866,-3.14566 2.628871,-5.21946 5.930719,-5.19387 2.565189,0.0199 4.424675,1.30968 5.459844,3.78719 0.93364,2.2345 0.451336,4.56373 -1.299443,6.27558 -1.887864,1.84588 -3.917854,2.32243 -6.290272,1.47669 z m 58.22206,0.0189 c -5.21895,-1.92998 -5.15713,-9.70682 0.0901,-11.33863 4.35085,-1.35303 8.61665,2.27518 7.89604,6.71586 -0.58229,3.58815 -4.55908,5.89011 -7.98616,4.62277 z m 16.3005,-0.017 c -3.23472,-1.15333 -4.72099,-4.43313 -3.57815,-7.89598 1.09356,-3.31353 6.09785,-4.81306 8.96827,-2.68734 3.87768,2.87165 3.28523,8.40799 -1.11712,10.43981 -1.57597,0.72736 -2.54429,0.75988 -4.273,0.14351 z M 64.951956,126.48843 c -2.041382,-0.95264 -3.864356,-2.91635 -4.673009,-5.03378 -0.601094,-1.57394 -0.592858,-1.81691 0.652797,-19.2624 0.693859,-9.7176 1.465055,-18.420863 1.713776,-19.3406 0.586938,-2.170423 2.471683,-4.35691 4.616579,-5.355696 l 1.681816,-0.783142 38.918945,-0.0033 c 43.82687,-0.0037 40.86131,-0.176018 43.56955,2.532222 1.01851,1.018521 1.64818,2.026741 2.00877,3.216498 0.69184,2.282589 3.24033,36.160058 2.85029,37.889398 -0.67181,2.9787 -3.24405,5.82783 -5.93658,6.57562 -0.82305,0.22857 -15.08934,0.34366 -42.48936,0.34273 l -41.250255,-0.001 -1.663319,-0.77621 z M 105.70323,101.98871 V 87.018873 H 89.093995 72.484751 l -0.190659,1.746485 c -0.104858,0.96056 -0.562356,6.911069 -1.01666,13.223352 -0.454317,6.3123 -0.914002,12.2628 -1.021539,13.22338 l -0.195525,1.74648 h 17.821416 17.821446 z m 40.24739,13.8887 c -0.002,-0.59464 -0.45053,-6.91939 -0.99524,-14.05502 -0.54473,-7.135628 -0.99163,-13.38554 -0.99313,-13.888693 l -0.002,-0.914824 h -16.63317 -16.63317 v 14.969837 14.96986 h 17.63115 17.63116 l -0.005,-1.08116 z"
         id="path42" />
    </g>
  </g>
</svg>
